<svg xmlns="http://www.w3.org/2000/svg" xml:space="preserve" id="Layer_1" x="0" y="0" viewBox="0 0 512 512"><style>.st5{fill:#841c56}</style><switch><foreignObject width="1" height="1" x="0" y="0" requiredExtensions="http://ns.adobe.com/AdobeIllustrator/10.0/"/><g><path d="M177 397.9h85.5l44.3-48c-20.7-7-32.9-30.7-32.9-30.7-20.9 30.5-63.4 12.2-63.4 12.2l-6 9.1c-.1 0 11.4 32.7-27.5 57.4m205.5-256.6s17 1.1 19.2 14.7-3.7 22.6-3.7 22.6c22.5 4.2 34.2 16 39.9 24.3V139c0-13.8-11.2-25-25-25h-4.1z" style="fill:#65a383"/><linearGradient id="SVGID_1_" x1="358.667" x2="358.667" y1="265.366" y2="422.852" gradientUnits="userSpaceOnUse"><stop offset=".101" style="stop-color:#a77233"/><stop offset=".552" style="stop-color:#da975a"/><stop offset=".735" style="stop-color:#a77233"/></linearGradient><path d="m423.4 277.4 2.4 3.4s-8.4 6.7-17.5 19.2-7.4 28.3-2.4 36.5 8.9 9.6 3.6 17.1c-5.3 7.4-13.4 2.9-13.4 2.9s1.9 14.9-1.9 18.7-13.9 2.2-22.8-16.3-7-39.6-7-39.6c-15.6 30.3-44.7 33.4-44.7 33.4l-40.2 45.4h133.4c13.8 0 25-11.2 25-25V257.8c-6.3 11.9-14.5 19.6-14.5 19.6" style="fill:url(#SVGID_1_)"/><linearGradient id="SVGID_2_" x1="127.947" x2="295.737" y1="223.416" y2="219.573" gradientUnits="userSpaceOnUse"><stop offset=".101" style="stop-color:#a77233"/><stop offset=".407" style="stop-color:#da975a"/><stop offset=".683" style="stop-color:#a77233"/></linearGradient><path d="M253.4 176c-21.3-30.1-31.7-58.6-31.7-58.6s-9.8 7.8-32.7 29c-22.9 21.1-41.5 29.6-60.4 37.9s-20.7 9-22.4 12c0 0 23.5 29 40.3 62.1s27.4 35.2 47.6 48.2 43.2 25.6 63.4 12.5 16.8-46.8 17.3-66.9-.1-46.1-21.4-76.2m-5.4 8s-12.8.6-22.1 12.2c-9.3 11.5-10.4 24.9-10.4 24.9s-16-22.5.6-37c16.7-14.6 31.9-.1 31.9-.1m-19.8 54.6c-.5 2.7-1.7 5-3.2 7-1.5 2.1-3.3 3.9-5.4 5.3q-3.15 2.25-6.9 3.3c-2.5.7-5.2 1-7.8.2 2-1.8 3.8-3.3 5.6-4.7s3.6-2.8 5.4-4c1.8-1.3 3.7-2.6 5.6-3.8 2.1-1.1 4.2-2.4 6.7-3.3m-24.9-68.1c2.9-3.9 7.1-7 11.6-8.1 2.2-.8 4.5-.7 6.7-1 2.2.1 4.5.4 6.6.8-2 1.1-4 1.8-5.9 2.6l-2.7 1.4c-.9.4-1.8.8-2.6 1.4-3.4 1.8-5.9 4.4-8 7.1-2.1 2.8-3.5 6.2-4.5 9.9-1 3.8-1.6 7.8-2.1 12.2-2.4-3.8-3.4-8.3-3.5-12.9.2-4.5 1.5-9.4 4.4-13.4m-57.5 47.1c-1.3 1.4-2.6 3-4.3 4.5.2-2.1.7-4.2 1.3-6.3.9-1.9 1.6-4 3-5.8 2.4-3.7 6.5-6.7 11-8.1 4.6-1.4 9.5-1 13.6.6s7.8 4.1 10.3 7.6c-4.1-1-7.9-1.8-11.6-2.2-3.7-.3-7.1-.1-10.2.8-3.1 1-6.1 2.5-8.8 5-1.6 1.1-2.8 2.6-4.3 3.9m6.7 33s-6.6-20 11.5-29.6 30.6 11 30.6 11-12.2-2.4-23.5 2.5c-11.4 5-18.6 16.1-18.6 16.1m21.9 32c-1.2-1.1-2.3-2.2-3.3-3.4s-2-2.5-2.8-4l-.7-1.2 1-.9c2-1.9 4.6-3 7.2-3.4s5.1-.2 7.5.8c-2.4.4-4.7 1-6.8 1.8-1 .4-2 .9-2.9 1.5-.5.3-.9.6-1.3.9.5.8 1.1 1.6 1.6 2.3.9 1.1 1.8 2.4 2.7 3.5 1.9 2.3 3.9 4.5 5.9 7-3-1.1-5.7-2.8-8.1-4.9m4.7-8.6s21-2.4 43.4-18 31.1-31.9 31.1-31.9 16.3 45.5-5.6 67.6c-22 22-57.4-5.2-68.9-17.7m80 19.8c-1.6 3.9-4.3 7.5-7.7 10.1s-7.6 4.3-11.8 4.7c-4.2.5-8.5-.1-12.1-2.1 8-.7 14.9-2.8 20.5-7.1 5.6-4.2 9.5-10.4 12.8-17.8.6 4.1-.1 8.4-1.7 12.2m3.2-64.5c-1.3-3-2.2-5.7-3.2-8.4-.5-1.3-1.1-2.6-1.6-3.8-.2-.4-.5-.9-.7-1.3-2.5 2-5 4.4-7.9 6.5.5-2.3 1.4-4.4 2.6-6.4s2.6-3.9 4.6-5.5l1.7-1.4 1.5 1.7c1.3 1.6 2 2.9 2.6 4.5.6 1.5 1 3.1 1.3 4.7.3 3.1.2 6.3-.9 9.4" style="fill:url(#SVGID_2_)"/><linearGradient id="SVGID_3_" x1="88.137" x2="154.741" y1="283.999" y2="271.19" gradientUnits="userSpaceOnUse"><stop offset=".101" style="stop-color:#a77233"/><stop offset=".407" style="stop-color:#da975a"/><stop offset=".683" style="stop-color:#a77233"/></linearGradient><path d="M123.9 229.3s8.5 13.4 13.6 22.3c0 0-31.2 19.7-31.2 42.9s23.7 28.1 30.4 28.1c0 0-29.9 1.9-41.1-15.4s-12.1-51.6 28.3-77.9" style="fill:url(#SVGID_3_)"/><linearGradient id="SVGID_4_" x1="128.631" x2="201.639" y1="360.516" y2="338.421" gradientUnits="userSpaceOnUse"><stop offset=".101" style="stop-color:#a77233"/><stop offset=".407" style="stop-color:#da975a"/><stop offset=".683" style="stop-color:#a77233"/></linearGradient><path d="m139 394.7 5.8-13.4-10.9-15.7s22.3 8.2 37.7-9.2-3.1-40.6-30.6-40.5c0 0 40.1-13.4 53.2 21.9 11.8 38.7-27.1 58-55.2 56.9" style="fill:url(#SVGID_4_)"/><path d="m367.2 144.6 24.9-30.6h-162c4 6 9.2 16 16.6 32.4l2.4 5.6c6.7-29.9 28.8-13 57.8-6.6 29 6.5 60.3-.8 60.3-.8M129.5 390.7c.5-7 3.4-8.2 3.4-8.2s-11.3-7.2-12-18.5 10.3-11.5 20.7-9.6c10.3 1.9 25 1.7 24.7-13.2-.2-14.9-19.2-12.7-19.2-12.7s-17.3 11.3-39.1 1.2c-21.9-10.1-36-35.5-28.8-61.7s33.9-44.4 33.9-44.4-8.2-10.1-14.4-19.5-2.2-20.7 26.4-29.5c28.6-8.9 50.4-27.4 66.3-43.9 7.2-7.5 12.1-12.8 16-16.6h-105c-15.5 0-28.1 12.6-28.1 28.1v231.5c0 13.4 10.9 24.3 24.3 24.3h33.7c-1.7-1.8-3-4.1-2.8-7.3" class="st5"/><path d="M350.4 158.3c-28.5 4.8-43.5-1.6-66.6-8s-24-1.3-24-1.3l1.3 31.7s6.3 7.9 11.1 20.4c2.2-2.3 5-4 7.9-5.3 3.8-1.8 8-2.8 12.1-3.3 3.7-.5 7.2-1.3 10.6-2.5 3.4-1.4 6.7-3 9.9-5.8-.8 4.2-3.9 7.8-7.5 10.2-3.6 2.5-7.9 3.9-12.2 4.4-3.9.5-7.6 1-11.3 1.7-2.9.6-5.8 1.2-8.8 2.1 1 2.9 2 6 2.8 9.2 2.1-.9 6.5-2.1 15.9-3.4 15.8-2 17.7-5.2 20.7-8.7 0 0 3.5 13.9-8.1 19.9-10.4 5.4-13.8.4-26.8 2v.3c3.7 30.6-1.1 77.1-1.1 77.1 13.3 31.5 30.9 41.9 41.3 41.8 10.4-.2 25.8-3.4 41.6-29.6 15.9-26.3 27.7-48.7 28-87.3s4.2-71.4 4.2-71.4c-7.2-1.1-12.5 1-41 5.8m-34.5 93.3c4.1.9 5.3 1.1 5.3 1.1 5.3.2 4.7-1.4 8.5-1.1 3.7.2 6.5 4.1 6.5 4.1s-7-.4-10.2 2.2-4.4 2.3-7.1.8c-2.6-1.6-2.9-2.3-7.1-3.8-3.4-1.2-5-2.2-5-2.2s5.1-2 9.1-1.1M283 273c.7-2.8 1.6-5.6 2.9-8.3 1.3-2.6 2.8-5.2 4.7-7.5s4.1-4.4 6.8-5.6c-1.8 2.3-3.3 4.7-4.7 7.1s-2.6 4.9-3.8 7.5c-1.3 2.5-2.3 5.1-3.5 7.7-1.1 2.6-2.2 5.2-3.6 7.9.2-3.1.6-6 1.2-8.8m42 34.5c-2.3 0-4.5-.1-6.7 0-4.5 0-9 .4-13.8.4 2-1.3 4.3-2.2 6.6-2.8s4.7-.9 7.1-1c4.8-.1 9.8.9 13.7 3.7-2.4 0-4.6-.2-6.9-.3m27.6-1.4c-1.9 1.7-4.4 2.4-9.7-.5s-11.8-7.8-24.8-7.9-25.7 6.1-28.4 6.9-4.7-2.6-4.7-2.6c-.9-1.5-1.2-5.3 3.5-12.4s19.4-20.7 29.8-21.1c8.6-.3 22.4 7.6 28.5 18.9 6.1 11 7.7 17 5.8 18.7m5.6-18.9c-1.6-6.2-3.3-12.1-5.6-17.7-1.1-2.9-2.4-5.6-3.8-8.3-1.4-2.8-3-5.3-4.6-8.2 2.6 1.9 5 4.1 6.8 6.8 2 2.6 3.5 5.5 4.7 8.5s2.1 6.1 2.5 9.3c.5 3.2.6 6.4 0 9.6m12.3-59c-4.8-3.1-13.1-1.3-23.5-2.8-9.8-1.5-13.2-20.5-11.6-23.3 0 0 4.2 8.1 16.6 9.8 16.7 2.3 22.5 9.2 26.7 20.2.1 0-3.4-.8-8.2-3.9m-2.7-20.9c-3.7-1.9-7.7-3.2-11.7-4.2-1-.3-2-.5-3.1-.8s-2.3-.6-3.4-1c-2.2-.9-4.5-1.9-6.4-3.5-3.8-3-6.4-7.7-6-12.3 1.9 4.1 4.9 7.1 8.3 8.9 1.8.9 3.6 1.6 5.5 2.1l3 .6c1.1.2 2.2.4 3.3.8 4.4 1.1 8.8 3.1 12.5 5.8 3.8 2.8 6.7 6.4 8.8 10.4-3.6-2.4-7.1-5-10.8-6.8m19.6 158.3s-13.3-10.7-13.3-35.4 33.6-45.3 40-49.3c0 0-14.6 11.7-20.7 29.6s8.5 37.6 8.5 37.6l-12.6.5zm5.9-178.2-.7 28.6s26.4 4.7 29.8 24-11.2 35.8-11.2 35.8 18.3-14.5 21.6-37.8-6.7-43-39.5-50.6" class="st5"/></g></switch></svg>