<?xml version="1.0" encoding="UTF-8"?>
<svg id="Layer_1" data-name="Layer 1" xmlns="http://www.w3.org/2000/svg" xmlns:xlink="http://www.w3.org/1999/xlink" viewBox="0 0 1376 1115.95">
  <defs>
    <style>
      .cls-1 {
        fill: url(#linear-gradient-2);
      }

      .cls-2 {
        fill: #fff;
      }

      .cls-3 {
        fill: url(#linear-gradient-6);
      }

      .cls-4 {
        fill: #f5ede3;
      }

      .cls-5 {
        fill: #4c1035;
      }

      .cls-6 {
        fill: url(#linear-gradient-5);
      }

      .cls-7 {
        fill: url(#linear-gradient-3);
      }

      .cls-8 {
        fill: #9a236f;
      }

      .cls-9 {
        fill: url(#linear-gradient);
      }

      .cls-10 {
        fill: #7ecba1;
      }

      .cls-11 {
        fill: #b88055;
      }

      .cls-12 {
        fill: url(#linear-gradient-4);
      }
    </style>
    <linearGradient id="linear-gradient" x1="456.41" y1="597.72" x2="460.24" y2="729.01" gradientUnits="userSpaceOnUse">
      <stop offset="0" stop-color="#91592c"/>
      <stop offset=".51" stop-color="#d7975f"/>
      <stop offset="1" stop-color="#91592c"/>
    </linearGradient>
    <linearGradient id="linear-gradient-2" x1="1190.71" y1="600.79" x2="1273.08" y2="600.79" xlink:href="#linear-gradient"/>
    <linearGradient id="linear-gradient-3" x1="716.68" y1="520.83" x2="859.09" y2="520.83" xlink:href="#linear-gradient"/>
    <linearGradient id="linear-gradient-4" x1="261.96" y1="567.48" x2="391.66" y2="567.48" xlink:href="#linear-gradient"/>
    <linearGradient id="linear-gradient-5" x1="278.63" y1="658.84" x2="329.54" y2="658.84" xlink:href="#linear-gradient"/>
    <linearGradient id="linear-gradient-6" x1="246.62" y1="606.09" x2="285.56" y2="606.09" xlink:href="#linear-gradient"/>
  </defs>
  <g>
    <path class="cls-10" d="m411.52,653.72c1.48.76,2.95,1.4,4.41,1.93-13.09,12.91-24.3,24.01-33.91,33.55h-68.61c8.61-3.76,15.13-10.01,19.47-18.68,2.97-5.94,4.02-12.54,3.14-18.92l8.43-8.27c4.53,1.69,9.3,2.75,13.96,3.1,4.24.31,7.91.23,11.23-.24,8.99-1.3,15.64-5.58,20.82-13.55,4.79,8.07,11.11,15.99,21.06,21.08Z"/>
    <path class="cls-10" d="m519.56,502.72v50.98c-.36.35-.71.7-1.07,1.05-2.55-4.24-6.19-7.81-10.89-10.62-5.41-3.23-11.39-5.5-18.58-7.04.57-3.51,1.26-7.02,2.09-10.54.38-1.6,1.53-6.47-1.57-10.51-2.04-2.67-5.27-4.08-9.59-4.21-.45-.01-.91-.02-1.35-.01l21.39-20.97h7.7c6.55,0,11.87,5.31,11.87,11.87Z"/>
    <path class="cls-9" d="m519.56,589.31v88.02c0,6.55-5.32,11.87-11.87,11.87h-112.01c9.98-9.89,20.78-20.57,32.13-31.78h.01c.72-.05,1.44-.13,2.17-.23,1.89-.27,3.8-.75,5.68-1.41,9.26-3.25,16.69-8.55,22.1-15.76,1.42-1.9,2.82-3.82,4.22-5.75-.36,1.24-.65,2.49-.84,3.71-1.72,11.41,1.54,22.41,9.69,32.7.86,1.09,1.8,1.78,2.48,2.28.17.12.35.26.55.41,1.48,1.21,3.39,1.71,5.24,1.45.52-.08,1.03-.22,1.54-.41,2.28-.91,3.89-2.98,4.22-5.41l.87-6.41,4.55-.31c.18-.01.35-.03.52-.05,2.1-.3,3.95-1.57,4.98-3.44,1.12-2.03,1.13-4.49.02-6.52-.13-.25-.24-.45-.32-.63-.25-.47-.53-1.02-.96-1.62-7.18-10.18-6.81-18.85,1.19-28.11,1.99-2.29,4.42-4.45,6.99-6.73,1.29-1.15,2.62-2.33,3.96-3.59,1.79-1.68,2.49-4.13,1.99-6.41,4.88-4.57,8.52-9.87,10.9-15.87Z"/>
  </g>
  <path class="cls-5" d="m193.23,490.85c-1.95,0-3.83.74-5.25,2.08l-34.5,32.38-5.29,4.97-16.39,15.38c-1.4,1.32-2.2,3.15-2.2,5.08v78.89c0,1.93.8,3.76,2.2,5.08l55.97,52.54c1.34,1.25,3.1,1.95,4.93,1.95h38.86v-198.35h-38.33Zm-20.14,112.76c-7.82,0-14.17-6.34-14.17-14.16,0-3.92,1.59-7.47,4.16-10.03,3.22,5.85,6.17,9.93,7.88,11.89.56.64,1.34.97,2.13.97.66,0,1.33-.23,1.86-.7,1.18-1.03,1.3-2.82.27-3.99-1.48-1.7-4.29-5.61-7.4-11.29,1.63-.66,3.41-1.02,5.27-1.02,7.83,0,14.17,6.34,14.17,14.17s-6.34,14.16-14.17,14.16Z"/>
  <path class="cls-11" d="m173.09,565.54c-3.4,0-6.63.71-9.56,2-1.76.75-3.41,1.73-4.91,2.88-5.74,4.37-9.44,11.26-9.44,19.03,0,13.2,10.71,23.9,23.91,23.9s23.91-10.7,23.91-23.9-10.71-23.91-23.91-23.91Zm0,38.07c-7.82,0-14.17-6.34-14.17-14.16,0-3.92,1.59-7.47,4.16-10.03,3.22,5.85,6.17,9.93,7.88,11.89.56.64,1.34.97,2.13.97.66,0,1.33-.23,1.86-.7,1.18-1.03,1.3-2.82.27-3.99-1.48-1.7-4.29-5.61-7.4-11.29,1.63-.66,3.41-1.02,5.27-1.02,7.83,0,14.17,6.34,14.17,14.17s-6.34,14.16-14.17,14.16Z"/>
  <path class="cls-8" d="m355.75,490.85c1.33,1.18,2.52,2.83,3.39,5.06,3.48,8.91,8.07,17.13,13.13,24.82-.02-.18-.03-.37-.04-.55-.87-10.91,6.07-13.11,9.1-13.54,1.28-.19,2.71-.2,4.35-.05,3.9.37,7.47,1.35,11.41,2.51l.12.03c13.53,3.97,26.31,7.72,39.52,7.18,7.12-.3,14.16-1.24,21.62-2.24,2.39-.32,4.83-.64,7.29-.95l22.72-22.27h-132.61Z"/>
  <path class="cls-8" d="m236.8,490.85v198.35h42.38c-.66-1.32-.87-2.84-.58-4.32.02-.08.02-.15.03-.21.09-.68.29-2.27,1.44-3.84,1.24-1.7,1.54-2.1-1.25-4.44-1.71-1.44-2.98-3.04-4.11-4.46-.4-.51-.8-1.02-1.23-1.51-1.85-2.15-2.17-5.21-.82-7.69,1.04-1.91,2.91-3.17,5-3.47.62-.09,1.26-.1,1.91-.01,1.57.22,3.09.47,4.59.72,2.93.48,5.69.94,8.28,1.05.94.04,1.9-.01,2.84-.15,5.41-.78,10.03-4.48,11.23-9,.73-2.77.22-4.35-1.95-6.04-3.57-2.79-7.99-3.89-12.74-4.46-.9,2.21-2.9,3.81-5.29,4.16-.32.04-.64.07-.97.07-1.41,0-2.83.04-4.33.09-3.47.1-7.05.21-10.76-.2-10.2-1.11-18.89-5.97-24.46-13.69-5.61-7.79-7.49-17.69-5.29-27.88.97-4.49,2.97-9.31,5.94-14.31,4.05-6.82,13-14.88,20.48-19.69-2.56-3.33-5.21-6.45-7.96-9.35-3.99-4.2-4.3-8.05-3.87-10.55.43-2.44,1.97-5.86,6.86-8.32,4.58-2.3,9.63-4.32,15.88-6.35,20.49-6.66,38.29-18.49,54.41-36.16,2.74-2.99,5.98-5.79,9.67-8.34h-105.33Z"/>
  <path class="cls-2" d="m174.95,591.58c-.53.47-1.2.7-1.86.7-.79,0-1.57-.33-2.13-.97-1.71-1.96-4.66-6.04-7.88-11.89,1.34-1.34,2.95-2.41,4.74-3.12,3.11,5.68,5.92,9.59,7.4,11.29,1.03,1.17.91,2.96-.27,3.99Z"/>
  <g>
    <path class="cls-5" d="m423.85,465.46c-3.53,5.04-8.97,8.85-15.73,11.02-6.1,1.96-12.82,2.41-18.93,1.27-13.05-2.44-26.75-11.26-35.95-18.24-1.24-.94-1.49-2.71-.54-3.96.94-1.24,2.72-1.49,3.96-.54,8.71,6.6,21.61,14.94,33.57,17.18,9.66,1.81,22.72-1.04,28.99-9.98,5.45-7.77,4.37-21.17-2.27-28.1-4.21-4.39-10.29-5.67-14.64-5.97-20.45-1.4-36.79,12.08-52.59,25.11-8.6,7.1-17.5,14.43-26.98,19.31-9.9,5.09-18.92,6.6-28.4,4.76-8.44-1.64-16.19-5.66-25.15-10.31-1.7-.88-3.45-1.79-5.24-2.7-25.86-13.14-46.48-17.05-61.27-11.62-18.9,6.93-47.45,17.4-49.29,59.4-.19,4.45-.16,8.86.09,13.22.78,13.4,3.66,26.39,8.6,38.77.48,1.19.96,2.34,1.45,3.46,1.43,3.25,2.89,6.19,4.29,8.76,3.11,5.68,5.92,9.59,7.4,11.29,1.03,1.17.91,2.96-.27,3.99-.53.47-1.2.7-1.86.7-.79,0-1.57-.33-2.13-.97-1.71-1.96-4.66-6.04-7.88-11.89-1.46-2.65-2.98-5.66-4.46-9-.61-1.36-1.2-2.77-1.79-4.24-4.6-11.52-7.49-23.53-8.64-35.9-.58-6.07-.72-12.21-.45-18.43.46-10.56,2.61-20.02,6.38-28.13,3.27-7.04,7.88-13.27,13.69-18.52,10.74-9.69,23.56-14.39,32.92-17.82,9.2-3.37,20.3-3.59,33.01-.66,9.83,2.27,20.85,6.49,32.77,12.54,1.81.92,3.58,1.84,5.29,2.73,17.08,8.87,29.42,15.28,48.35,5.54,8.94-4.6,17.21-11.42,25.97-18.64,16.65-13.74,33.88-27.94,56.58-26.39,7.67.52,14.01,3.18,18.33,7.7,4.05,4.22,6.68,10.48,7.22,17.17.55,6.72-1.05,13.31-4.4,18.09Z"/>
    <path class="cls-5" d="m340.18,448.89c-.51,0-1.03-.14-1.5-.43-.4-.25-.99-.68-1.87-1.32-17.45-12.72-31.85-17.98-42.8-15.65-6.55,1.4-11.91,5.65-15.93,12.65-.78,1.35-2.51,1.82-3.86,1.04-1.35-.78-1.82-2.51-1.04-3.86,4.85-8.45,11.47-13.62,19.66-15.36,8.17-1.74,17.78-.02,28.56,5.1,8.48,4.03,15.41,9.08,18.74,11.51.67.49,1.31.95,1.54,1.1,1.32.83,1.73,2.57.9,3.9-.54.86-1.46,1.33-2.4,1.33Z"/>
  </g>
  <g>
    <g>
      <g>
        <path class="cls-4" d="m545.29,527.19v29.93h3.1c1.25-8.15,4.24-14.43,8.97-18.84,3.37-3.15,8.78-4.73,16.23-4.73h7.99v85.31c0,5.54-.29,8.97-.89,10.27-.82,1.85-1.93,3.16-3.35,3.92-1.95,1.14-4.54,1.71-7.74,1.71h-3.67v3.02h57.9v-3.02h-3.67c-3.15,0-5.64-.53-7.46-1.59s-3.05-2.29-3.67-3.71c-.63-1.41-.94-4.95-.94-10.6v-85.31h8.24c5.16,0,8.78.49,10.84,1.47,3.7,1.8,6.61,4.2,8.73,7.22,2.12,3.02,4.05,7.98,5.79,14.88h2.94v-29.93h-99.34Z"/>
        <path class="cls-4" d="m732.13,632.11c-1.08-1.44-1.63-5.07-1.63-10.89v-29.76c0-8.7-.56-14.89-1.67-18.56-1.11-3.67-3.37-6.86-6.77-9.58s-7.49-4.08-12.27-4.08c-3.75,0-7.37.91-10.85,2.74-3.48,1.82-7.31,4.93-11.5,9.33v-44.12h-31.07v3.02c3.37.44,5.59,1.36,6.65,2.77,1.06,1.42,1.59,5.01,1.59,10.77v77.47c0,5.82-.47,9.33-1.39,10.52-1.36,1.75-3.64,2.78-6.85,3.1v2.94h38.66v-2.94c-3.21-.43-5.33-1.57-6.36-3.42-.82-1.36-1.23-4.76-1.23-10.2v-40.85c2.39-3.76,4.62-6.38,6.69-7.87,2.06-1.5,4.19-2.25,6.36-2.25,1.47,0,2.79.45,3.96,1.35,1.16.9,1.99,2.15,2.48,3.75.49,1.6.74,5.56.74,11.87v34c0,5.5-.49,8.95-1.47,10.36-1.36,1.8-3.4,2.88-6.12,3.26v2.94h38.66v-2.94c-3.32-.38-5.52-1.29-6.61-2.73Z"/>
        <path class="cls-4" d="m802.43,624.94c-2.66,1.82-5.62,2.73-8.89,2.73-5.27,0-9.78-2.26-13.53-6.77-4.9-5.87-7.59-13.87-8.08-23.98h41.84c-.44-12.45-3.5-21.84-9.18-28.18-5.68-6.33-12.38-9.5-20.1-9.5-5.96,0-11.43,1.57-16.41,4.71-2.74,1.72-5.33,3.91-7.77,6.59-3.14,3.44-5.56,7.41-7.27,11.93-2.03,5.38-3.05,11.53-3.05,18.45,0,10.38,2.34,19.08,7.02,26.09,5.81,8.7,14.38,13.05,25.69,13.05,6.57,0,12.36-1.75,17.37-5.26,5-3.5,9.57-9.47,13.7-17.9l-2.77-1.79c-3.05,4.73-5.9,8-8.57,9.83Zm-30.91-36.34c0-8.42,1.61-15.06,4.82-19.9,1.79-2.77,4.1-4.16,6.93-4.16,1.9,0,3.42.49,4.56,1.47,2.02,1.69,3.5,4.16,4.45,7.42.95,3.27,1.43,9.27,1.43,18.03h-22.19v-2.86Z"/>
        <path class="cls-4" d="m895.97,625.38c-1.46,2.02-2.9,3.02-4.32,3.02-.7,0-1.33-.22-1.87-.65-.55-.44-.96-1.1-1.23-2-.27-.9-.4-3.08-.4-6.56v-29.61c0-8.21-.39-13.45-1.15-15.74-1.25-3.59-3.98-6.92-8.19-9.99-4.22-3.07-9.94-4.61-17.17-4.61-5.98,0-11.74.96-17.29,2.86-5.54,1.9-9.87,4.63-12.97,8.19-3.09,3.57-4.64,7.3-4.64,11.22,0,2.77,1.15,5.19,3.46,7.26,2.31,2.06,5.18,3.09,8.61,3.09,3.2,0,5.8-.93,7.78-2.81,1.99-1.87,2.98-4.14,2.98-6.81,0-2.17-1.03-4.43-3.1-6.77-1.52-1.68-2.28-3.1-2.28-4.24,0-1.3.7-2.44,2.12-3.42,2.28-1.58,5.19-2.37,8.72-2.37,2.18,0,4.14.56,5.88,1.67,1.74,1.12,2.92,2.42,3.54,3.92.63,1.49.94,5.12.94,10.89v7.66c-16.8,7.72-27.7,13.91-32.7,18.55-5,4.65-7.5,9.89-7.5,15.7,0,4.3,1.44,7.87,4.32,10.73,2.88,2.85,6.49,4.28,10.85,4.28,7.39,0,15.74-4.1,25.03-12.31.55,4.13,2.04,7.21,4.49,9.25,2.44,2.04,5.84,3.06,10.19,3.06,3.7,0,7-.91,9.91-2.73,2.91-1.82,5.72-4.74,8.44-8.77l-2.45-1.96Zm-30.58-4.81c-3.59,3.05-6.74,4.57-9.46,4.57-2.44,0-4.35-.74-5.71-2.2-1.79-1.91-2.69-4.11-2.69-6.61,0-2.99,1.06-5.95,3.18-8.89,3.21-4.4,8.1-8.53,14.68-12.39v25.52Z"/>
        <path class="cls-4" d="m955.18,569.6v-8.07h-18.1v-27.89h-2.69c-3.59,6.57-7.79,12.53-12.6,17.86-4.81,5.32-10.65,10.41-17.5,15.25v2.85h9.95v41.19c0,8.15.27,13.15.82,15,.92,3.32,3.06,6.32,6.4,9.01,3.34,2.69,7.43,4.04,12.27,4.04,9.9,0,17.05-5.22,21.45-15.66l-2.44-1.79c-3.16,5.38-6.5,8.07-10.03,8.07-.88,0-1.83-.39-2.86-1.18-1.03-.79-1.75-1.82-2.16-3.1-.41-1.28-.61-4.12-.61-8.52v-47.06h18.1Z"/>
        <path class="cls-4" d="m1025.69,562.06c-1.83-1.88-4.26-2.82-7.3-2.82-3.54,0-7.21,1.3-11.01,3.88-3.81,2.58-8.24,7.81-13.3,15.7v-17.29h-31.15v3.01c2.61.28,4.43.77,5.46,1.47,1.04.71,1.83,1.82,2.37,3.35.43,1.19.65,3.97.65,8.31v42.17c0,6.63-.58,10.72-1.75,12.27-1.17,1.55-3.41,2.46-6.73,2.73v2.94h41.19v-2.94c-3.05-.16-5.21-.58-6.49-1.26-1.28-.68-2.24-1.75-2.89-3.22-.38-.87-.57-2.86-.57-5.96l-.09-4.56v-17.54c0-6.36.87-12.17,2.61-17.45,1.15-3.42,2.83-6.06,5.06-7.91,1.41-1.19,2.91-1.79,4.49-1.79.7,0,1.33.16,1.87.49.38.21,1.63,1.25,3.75,3.09,2.12,1.85,4.62,2.78,7.51,2.78,2.5,0,4.63-1.01,6.4-3.02,1.76-2.01,2.65-4.84,2.65-8.48,0-3.43-.91-6.08-2.73-7.95Z"/>
        <path class="cls-4" d="m1086.81,624.94c-2.66,1.82-5.63,2.73-8.89,2.73-5.27,0-9.78-2.26-13.54-6.77-4.89-5.87-7.58-13.87-8.07-23.98h41.84c-.44-12.45-3.5-21.84-9.18-28.18-5.68-6.33-12.38-9.5-20.1-9.5-9.24,0-17.3,3.77-24.18,11.3-6.88,7.53-10.32,17.66-10.32,30.38,0,10.38,2.34,19.08,7.02,26.09,5.81,8.7,14.38,13.05,25.68,13.05,6.58,0,12.37-1.75,17.38-5.26,5-3.5,9.56-9.47,13.7-17.9l-2.78-1.79c-3.04,4.73-5.9,8-8.56,9.83Zm-30.91-36.34c0-8.42,1.61-15.06,4.81-19.9,1.8-2.77,4.11-4.16,6.94-4.16,1.9,0,3.42.49,4.56,1.47,2.01,1.69,3.5,4.16,4.45,7.42.95,3.27,1.42,9.27,1.42,18.03h-22.18v-2.86Z"/>
        <path class="cls-8" d="m1168.69,596.11v-71.2h-9.95l-52.52,71.2v16.88h40.04v24.79h22.43v-24.79h10.11v-16.88h-10.11Zm-22.43,0h-32.13l32.13-43.64v43.64Z"/>
        <path class="cls-1" d="m1266.47,632.11c-1.08-1.44-1.63-5.07-1.63-10.89v-59.69h-31.07v3.01c3.37.44,5.59,1.36,6.65,2.78,1.06,1.41,1.59,5,1.59,10.76v40.78c-3.05,4.29-5.66,7.15-7.83,8.56-1.58,1.04-3.34,1.55-5.3,1.55-1.47,0-2.76-.41-3.88-1.22-1.11-.82-1.93-2.01-2.44-3.59-.52-1.58-.78-5.08-.78-10.52v-52.11h-31.07v3.01c3.37.44,5.59,1.36,6.65,2.78,1.06,1.41,1.59,5,1.59,10.76v30.26c0,8.81.57,14.98,1.71,18.51,1.14,3.54,3.38,6.62,6.73,9.26,3.34,2.63,7.16,3.95,11.46,3.95,4.51,0,8.59-.99,12.23-2.97,3.64-1.99,7.28-5.15,10.93-9.5v10.19h31.07v-2.94c-3.32-.38-5.52-1.29-6.61-2.73Z"/>
      </g>
      <g>
        <path class="cls-10" d="m552.77,671.89v-.08c2.79-.87,4.12-2.94,4.12-6.36,0-4.94-3.37-6.78-7.53-6.78h-9.06v28h8.86c5.26,0,8.63-2.98,8.63-7.65s-1.96-6.59-5.02-7.13Zm-8-9.85h3.14c2.51,0,4.51.67,4.51,4,0,2.63-1.41,4.43-4.12,4.43h-3.53v-8.43Zm4.43,21.25h-4.43v-9.68h4.16c2.59,0,4.39,1.73,4.39,4.74,0,3.22-1.45,4.94-4.12,4.94Z"/>
        <path class="cls-10" d="m572.42,665.57v14.74c0,2.36-1.65,3.53-3.45,3.53s-2.87-.78-2.87-3.13v-15.14h-4.23v14.74c0,5.45,2.12,6.91,5.25,6.91,2.35,0,4.35-1.14,5.41-3.02h.12v2.47h4v-21.1h-4.23Z"/>
        <path class="cls-10" d="m581.71,665.57v21.1h4.23v-21.1h-4.23Zm0-7.21v4.23h4.23v-4.23h-4.23Z"/>
        <path class="cls-10" d="m591.2,658.67v28h4.23v-28h-4.23Z"/>
        <path class="cls-10" d="m609.19,668.71v-3.14h-3.45v-6h-4.23v6h-2.9v3.14h2.9v13.09c0,4.32,1.41,5.1,4.27,5.1,1.33,0,2.51-.12,3.41-.35v-3.14c-.39.08-.9.12-1.53.12-1.45,0-1.92-.59-1.92-2.24v-12.58h3.45Z"/>
        <path class="cls-10" d="m630.17,661.73h1.18v-3.25c-.63-.08-1.42-.12-2.32-.12-3.45,0-5.37,1.25-5.37,5.25v1.96h-2.94v3.14h2.94v17.96h4.24v-17.96h3.45v-3.14h-3.45v-1.84c0-1.41.7-2,2.27-2Z"/>
        <path class="cls-10" d="m641.07,665.02c-6.12,0-7.84,4.55-7.84,11.1s2,11.1,7.84,11.1,7.88-4.55,7.88-11.1-1.72-11.1-7.88-11.1Zm0,19.06c-3.06,0-3.61-2.59-3.61-7.96,0-4.67.55-7.96,3.61-7.96s3.65,3.29,3.65,7.96c0,5.37-.55,7.96-3.65,7.96Z"/>
        <path class="cls-10" d="m662.2,665.02c-2.39,0-3.96,1.49-4.9,3.85h-.08v-3.3h-4.23v21.1h4.23v-12.63c0-3.92,2.32-4.78,4.24-4.78.7,0,1.45.15,1.76.23v-4.31c-.27-.08-.55-.16-1.02-.16Z"/>
        <path class="cls-10" d="m685.02,668.71v-3.14h-3.45v-6h-4.23v6h-2.9v3.14h2.9v13.09c0,4.32,1.41,5.1,4.27,5.1,1.33,0,2.51-.12,3.41-.35v-3.14c-.39.08-.9.12-1.53.12-1.45,0-1.92-.59-1.92-2.24v-12.58h3.45Z"/>
        <path class="cls-10" d="m697.53,665.02c-2.16,0-4,1.1-5.18,2.9l-.11-.07v-9.18h-4.24v28h4.24v-14.16c0-2.74,1.64-4.11,3.37-4.11,2.12,0,2.94,1.05,2.94,3.8v14.47h4.23v-15.92c0-4.28-2.03-5.73-5.25-5.73Z"/>
        <path class="cls-10" d="m722.31,676.67v-2.24c0-5.88-1.57-9.41-7.45-9.41-6.63,0-7.8,5.88-7.8,11.41,0,9.77,4.27,10.79,7.72,10.79,4.59,0,7.41-2.95,7.41-7.61h-4c0,1.25-.35,4.7-3.37,4.7-3.17,0-3.53-3.6-3.53-6.43v-1.21h11.02Zm-11.02-3.33c0-2.75.83-5.42,3.53-5.42,2.39,0,3.26,2.04,3.26,4.71v1.14h-6.79v-.43Z"/>
        <path class="cls-10" d="m745.6,665.02c-2.31,0-3.88,1.26-4.74,3.14h-.08v-2.59h-4v28h4.23v-9.37h.08c.79,1.88,2.51,3.02,4.78,3.02,2.91,0,6.51-1.97,6.51-10.83,0-7.25-1.96-11.37-6.78-11.37Zm-1.22,18.82c-2.97,0-3.6-2.9-3.6-7.96,0-4.5.66-7.48,3.57-7.48s3.56,3.01,3.56,7.8c0,5.84-1.09,7.64-3.53,7.64Z"/>
        <path class="cls-10" d="m771.09,676.67v-2.24c0-5.88-1.57-9.41-7.45-9.41-6.63,0-7.81,5.88-7.81,11.41,0,9.77,4.28,10.79,7.73,10.79,4.59,0,7.41-2.95,7.41-7.61h-4c0,1.25-.35,4.7-3.37,4.7-3.18,0-3.53-3.6-3.53-6.43v-1.21h11.02Zm-11.02-3.33c0-2.75.82-5.42,3.53-5.42,2.39,0,3.25,2.04,3.25,4.71v1.14h-6.78v-.43Z"/>
        <path class="cls-10" d="m782.38,665.02c-6.12,0-7.84,4.55-7.84,11.1s2,11.1,7.84,11.1,7.88-4.55,7.88-11.1-1.73-11.1-7.88-11.1Zm0,19.06c-3.06,0-3.61-2.59-3.61-7.96,0-4.67.55-7.96,3.61-7.96s3.64,3.29,3.64,7.96c0,5.37-.54,7.96-3.64,7.96Z"/>
        <path class="cls-10" d="m803.12,665.02c-2.31,0-3.88,1.26-4.74,3.14h-.08v-2.59h-4v28h4.23v-9.37h.08c.79,1.88,2.51,3.02,4.78,3.02,2.91,0,6.51-1.97,6.51-10.83,0-7.25-1.96-11.37-6.78-11.37Zm-1.22,18.82c-2.97,0-3.6-2.9-3.6-7.96,0-4.5.66-7.48,3.57-7.48s3.56,3.01,3.56,7.8c0,5.84-1.09,7.64-3.53,7.64Z"/>
        <path class="cls-10" d="m814.14,658.67v28h4.23v-28h-4.23Z"/>
        <path class="cls-10" d="m838.09,676.67v-2.24c0-5.88-1.56-9.41-7.45-9.41-6.62,0-7.8,5.88-7.8,11.41,0,9.77,4.28,10.79,7.73,10.79,4.58,0,7.41-2.95,7.41-7.61h-4c0,1.25-.36,4.7-3.37,4.7-3.18,0-3.53-3.6-3.53-6.43v-1.21h11.01Zm-11.01-3.33c0-2.75.82-5.42,3.53-5.42,2.39,0,3.25,2.04,3.25,4.71v1.14h-6.78v-.43Z"/>
        <path class="cls-10" d="m872.56,665.57l-2.9,16.63h-.08l-3.14-16.63h-4.78l-3.14,16.63h-.08l-2.94-16.63h-4.39l4.79,21.1h4.94l3.01-16.39h.08l3.3,16.39h4.74l4.82-21.1h-4.23Z"/>
        <path class="cls-10" d="m889.73,665.02c-2.15,0-4,1.1-5.17,2.9l-.12-.07v-9.18h-4.23v28h4.23v-14.16c0-2.74,1.65-4.11,3.37-4.11,2.12,0,2.94,1.05,2.94,3.8v14.47h4.24v-15.92c0-4.28-2.04-5.73-5.26-5.73Z"/>
        <path class="cls-10" d="m906.87,665.02c-6.12,0-7.84,4.55-7.84,11.1s1.99,11.1,7.84,11.1,7.88-4.55,7.88-11.1-1.73-11.1-7.88-11.1Zm0,19.06c-3.06,0-3.61-2.59-3.61-7.96,0-4.67.55-7.96,3.61-7.96s3.64,3.29,3.64,7.96c0,5.37-.55,7.96-3.64,7.96Z"/>
        <path class="cls-10" d="m948.59,665.02c-2.55,0-4.12,1.18-5.34,3.22-.62-1.77-1.88-3.22-4.9-3.22-2,0-4,1.14-5.06,3.02h-.11v-2.47h-4v21.1h4.23v-14.16c0-2.74,1.65-4.11,3.33-4.11,1.77,0,2.59,1.05,2.59,3.8v14.47h4.24v-14.16c0-2.74,1.64-4.11,3.37-4.11s2.55,1.05,2.55,3.8v14.47h4.23v-16.04c0-4.08-2.16-5.61-5.13-5.61Z"/>
        <path class="cls-10" d="m973.72,683.77c-.63,0-1.1-.71-1.1-1.49v-12.08c0-3.73-2.98-5.18-6.7-5.18-5.57,0-7.41,2.47-7.41,6.94h3.99c0-2.04.4-4.04,3.22-4.04,2.23,0,2.9,1.22,2.9,3.14s-.94,2.28-2.47,2.71l-3.29.9c-2.86.94-4.9,1.92-4.9,6.62,0,4.04,2.11,5.93,5.49,5.93,2.47,0,4.11-1.02,5.25-3.1h.08c.12,2.04,1.68,2.78,3.57,2.78.82,0,1.56-.27,2.07-.51v-2.74c-.15.08-.43.12-.7.12Zm-5.1-4.71c0,3.1-1.25,5.02-3.8,5.02-1.77,0-2.63-1.41-2.63-3.18,0-1.57.51-2.82,1.73-3.41,1.25-.59,3.6-1.1,4.7-1.96v3.53Z"/>
        <path class="cls-10" d="m986.97,673.69l6.35-8.16-4.9.04-6.39,8.82h-.08v-15.72h-4.23v28h4.23v-6.71l2.39-2.9,5.18,9.61h4.63l-7.18-12.98Z"/>
        <path class="cls-10" d="m1011.08,676.67v-2.24c0-5.88-1.56-9.41-7.44-9.41-6.63,0-7.81,5.88-7.81,11.41,0,9.77,4.28,10.79,7.73,10.79,4.58,0,7.41-2.95,7.41-7.61h-4c0,1.25-.35,4.7-3.37,4.7-3.18,0-3.53-3.6-3.53-6.43v-1.21h11.01Zm-11.01-3.33c0-2.75.82-5.42,3.53-5.42,2.39,0,3.25,2.04,3.25,4.71v1.14h-6.78v-.43Z"/>
        <path class="cls-10" d="m1034.26,668.71v-3.14h-3.45v-6h-4.24v6h-2.9v3.14h2.9v13.09c0,4.32,1.41,5.1,4.28,5.1,1.33,0,2.51-.12,3.41-.35v-3.14c-.39.08-.9.12-1.53.12-1.45,0-1.92-.59-1.92-2.24v-12.58h3.45Z"/>
        <path class="cls-10" d="m1046.77,665.02c-2.16,0-4,1.1-5.18,2.9l-.12-.07v-9.18h-4.23v28h4.23v-14.16c0-2.74,1.65-4.11,3.37-4.11,2.12,0,2.94,1.05,2.94,3.8v14.47h4.24v-15.92c0-4.28-2.04-5.73-5.25-5.73Z"/>
        <path class="cls-10" d="m1071.55,676.67v-2.24c0-5.88-1.57-9.41-7.45-9.41-6.63,0-7.81,5.88-7.81,11.41,0,9.77,4.28,10.79,7.73,10.79,4.58,0,7.41-2.95,7.41-7.61h-4c0,1.25-.35,4.7-3.37,4.7-3.18,0-3.53-3.6-3.53-6.43v-1.21h11.02Zm-11.02-3.33c0-2.75.82-5.42,3.53-5.42,2.39,0,3.25,2.04,3.25,4.71v1.14h-6.78v-.43Z"/>
        <path class="cls-10" d="m1090.76,683.77c-.63,0-1.1-.71-1.1-1.49v-12.08c0-3.73-2.98-5.18-6.7-5.18-5.57,0-7.41,2.47-7.41,6.94h3.99c0-2.04.4-4.04,3.22-4.04,2.23,0,2.9,1.22,2.9,3.14s-.94,2.28-2.47,2.71l-3.29.9c-2.87.94-4.9,1.92-4.9,6.62,0,4.04,2.11,5.93,5.49,5.93,2.47,0,4.11-1.02,5.25-3.1h.08c.12,2.04,1.68,2.78,3.57,2.78.82,0,1.56-.27,2.07-.51v-2.74c-.15.08-.43.12-.7.12Zm-5.1-4.71c0,3.1-1.25,5.02-3.8,5.02-1.77,0-2.63-1.41-2.63-3.18,0-1.57.51-2.82,1.73-3.41,1.25-.59,3.6-1.1,4.7-1.96v3.53Z"/>
        <path class="cls-10" d="m1103.46,668.71v-3.14h-3.45v-6h-4.23v6h-2.9v3.14h2.9v13.09c0,4.32,1.41,5.1,4.27,5.1,1.33,0,2.51-.12,3.41-.35v-3.14c-.39.08-.9.12-1.53.12-1.45,0-1.92-.59-1.92-2.24v-12.58h3.45Z"/>
        <path class="cls-10" d="m1115.66,665.02c-2.4,0-3.96,1.49-4.9,3.85h-.08v-3.3h-4.24v21.1h4.24v-12.63c0-3.92,2.31-4.78,4.23-4.78.71,0,1.45.15,1.77.23v-4.31c-.28-.08-.55-.16-1.02-.16Z"/>
        <path class="cls-10" d="m1134.01,676.67v-2.24c0-5.88-1.57-9.41-7.45-9.41-6.63,0-7.81,5.88-7.81,11.41,0,9.77,4.28,10.79,7.73,10.79,4.58,0,7.41-2.95,7.41-7.61h-4c0,1.25-.35,4.7-3.37,4.7-3.18,0-3.53-3.6-3.53-6.43v-1.21h11.02Zm-11.02-3.33c0-2.75.82-5.42,3.53-5.42,2.39,0,3.25,2.04,3.25,4.71v1.14h-6.78v-.43Z"/>
        <path class="cls-10" d="m1158,665.02c-2.15,0-4,1.1-5.17,2.9l-.12-.07v-9.18h-4.24v28h4.24v-14.16c0-2.74,1.65-4.11,3.37-4.11,2.12,0,2.94,1.05,2.94,3.8v14.47h4.24v-15.92c0-4.28-2.04-5.73-5.26-5.73Z"/>
        <path class="cls-10" d="m1183.06,683.77c-.63,0-1.1-.71-1.1-1.49v-12.08c0-3.73-2.98-5.18-6.71-5.18-5.56,0-7.41,2.47-7.41,6.94h4c0-2.04.39-4.04,3.22-4.04,2.23,0,2.9,1.22,2.9,3.14s-.94,2.28-2.47,2.71l-3.29.9c-2.87.94-4.91,1.92-4.91,6.62,0,4.04,2.12,5.93,5.49,5.93,2.47,0,4.12-1.02,5.26-3.1h.08c.11,2.04,1.68,2.78,3.56,2.78.83,0,1.57-.27,2.08-.51v-2.74c-.16.08-.43.12-.7.12Zm-5.1-4.71c0,3.1-1.26,5.02-3.8,5.02-1.77,0-2.63-1.41-2.63-3.18,0-1.57.51-2.82,1.72-3.41,1.26-.59,3.61-1.1,4.71-1.96v3.53Z"/>
        <path class="cls-10" d="m1195.88,665.02c-2.32,0-3.88,1.26-4.75,3.14h-.07v-2.59h-4v28h4.23v-9.37h.08c.78,1.88,2.51,3.02,4.78,3.02,2.9,0,6.51-1.97,6.51-10.83,0-7.25-1.96-11.37-6.78-11.37Zm-1.22,18.82c-2.98,0-3.6-2.9-3.6-7.96,0-4.5.66-7.48,3.56-7.48s3.57,3.01,3.57,7.8c0,5.84-1.1,7.64-3.53,7.64Z"/>
        <path class="cls-10" d="m1215.52,665.02c-2.31,0-3.88,1.26-4.74,3.14h-.08v-2.59h-4v28h4.23v-9.37h.08c.79,1.88,2.51,3.02,4.79,3.02,2.9,0,6.5-1.97,6.5-10.83,0-7.25-1.96-11.37-6.78-11.37Zm-1.21,18.82c-2.98,0-3.61-2.9-3.61-7.96,0-4.5.67-7.48,3.57-7.48s3.56,3.01,3.56,7.8c0,5.84-1.09,7.64-3.52,7.64Z"/>
        <path class="cls-10" d="m1241.01,676.67v-2.24c0-5.88-1.57-9.41-7.45-9.41-6.63,0-7.81,5.88-7.81,11.41,0,9.77,4.28,10.79,7.73,10.79,4.59,0,7.41-2.95,7.41-7.61h-4c0,1.25-.35,4.7-3.37,4.7-3.18,0-3.53-3.6-3.53-6.43v-1.21h11.02Zm-11.02-3.33c0-2.75.82-5.42,3.53-5.42,2.39,0,3.25,2.04,3.25,4.71v1.14h-6.78v-.43Z"/>
        <path class="cls-10" d="m1254.81,665.02c-2.35,0-4.35,1.14-5.41,3.02h-.12v-2.47h-4v21.1h4.24v-14.16c0-2.74,1.64-4.11,3.37-4.11,2.11,0,2.94,1.05,2.94,3.8v14.47h4.23v-15.92c0-4.28-2.04-5.73-5.25-5.73Z"/>
        <path class="cls-10" d="m1265.36,681.49v5.18h4.47v-5.18h-4.47Z"/>
      </g>
    </g>
    <path class="cls-7" d="m716.68,535.35c.51-1.29,15.83-7.98,23.16-5.15,7.33,2.83,17.63,17.24,17.63,17.24,0,0,23.38-29.6,47.91-52.93,24.54-23.33,53.7-35.34,53.7-35.34,0,0-30.2,24.36-52.5,51.47-22.3,27.11-42.21,58.85-45.47,64.43-3.26,5.58-6.01,7.72-8.41,7.38-2.4-.34-3.6-3.43-5.06-6.78-1.46-3.35-10.9-21.79-17.93-30.37-7.03-8.58-13.04-9.95-13.04-9.95Z"/>
  </g>
  <g>
    <path class="cls-12" d="m391.61,585.7c-.03-3.68-.06-6.94-.07-9.57-2.23-15.82-5.81-25.8-11.93-33.69-10.62-13.69-20.44-27.79-26.8-44.06-1.35-3.47-3.6-4.15-6.71-2.02-3.11,2.14-6.08,4.63-8.62,7.41-15.95,17.48-34.67,30.67-57.33,38.04-5.09,1.65-10.16,3.56-14.93,5.96-4.03,2.02-4.24,4.84-1.12,8.13,10.91,11.5,19.2,24.74,26.17,38.89,5.45,11.04,13.34,20.03,24.06,26.06,8.88,5,18.02,9.6,27.29,13.86l2.43,1.11c1.86.84,3.83,1.57,5.85,2.17,2.95.86,6.01,1.44,9.01,1.66,15.82,1.18,23.53-3.67,29.57-17.78,1.68-3.95,2.88-8.4,3-12.66.12-4.11.16-8.22.17-12.15.02-4.03,0-7.88-.04-11.36Zm-15.91-25.19c2.29-2.8,5.49-2.16,6.22,1.31.86,4.05.89,8.27,1.28,12.42-.33.04-.66.08-.99.12-.71-2.58-1.34-5.18-2.17-7.72-1.04-3.21-2.51-3.53-5.05-1.21-.57.52-1.07,1.14-1.59,1.71-.49.54-.98,1.07-1.47,1.61-.3-.18-.6-.36-.9-.54,1.54-2.59,2.79-5.4,4.67-7.7Zm-5.65-19.47c-14.09,2.87-20.82,12.86-25.83,24.74-4.6-7.94-3.74-18.17,1.78-23.34,6.35-5.98,16.23-6.71,24.05-1.4Zm-13.74,39.94c-1.72,1.74-3.56,3.1-4.73,4.9-2.05,3.15-4.66,4.87-8.44,5.27-2.03.22-3.98,1.27-6.2,2.03.15-2.11,1.52-3.81,3.89-5.14,3.07-1.73,6.07-3.62,8.93-5.67,2.28-1.64,4.5-2.11,6.55-1.39Zm-21.7-46.71c5.04-8.19,12.94-10.39,21.94-9.83-16.39,4.98-19.42,8.78-21.04,26.7-3.49-4.4-4.08-11.69-.9-16.87Zm-48.44,35.02c2.93-8.1,8.1-14,16.81-15.53,7-1.23,12.23,2.26,16.3,7.86-5.83-2.63-11.71-4.66-18.23-3.16-6.55,1.51-10.93,5.82-14.88,10.83Zm9.3,19c-2.1-8.08,2.72-17.12,10.74-20.63,7.2-3.16,17.29.41,22.31,8.07-12.85-.61-24.65,1.43-33.05,12.56Zm18.4,19.83c1.89,1.88,3.95,3.58,5.94,5.36-.18.32-.37.64-.56.96-3.44-2.1-7.14-3.88-10.25-6.39-2.76-2.23-2.09-5.05,1.32-5.97,2.99-.81,6.2-.79,9.32-1.14.06.35.11.7.17,1.04-1.68.56-3.42,1-5.03,1.72-2.72,1.21-2.97,2.37-.91,4.42Zm38.43,14.1c-10.54-.28-26.12-7.45-32.42-15.1,23.4-4.65,42.16-16.51,56.49-36.26,2.51,9.6,3.78,18.71,2.16,27.66h0c-.52,2.91-1.35,5.78-2.53,8.65-4.19,10.2-10.92,14.82-21.65,15.06-.67.01-1.35.01-2.05,0Zm28.19-13.69c-1.1,13-10.03,20.22-20.58,19.65h0c-2.13-.11-4.32-.54-6.53-1.31,3.22.01,6.21-.34,8.95-1.06,8.28-2.18,14.37-7.78,18.17-17.28Z"/>
    <path class="cls-8" d="m479.75,518.62c-2.93-.08-5.88.35-8.82.72-.4.04-.79.09-1.19.13-4.05.46-8.11,1.02-12.16,1.56-6.85.91-13.7,1.78-20.57,2.06-14.38.6-28.15-3.46-41.84-7.47-3.32-.98-6.71-1.94-10.13-2.26-5.05-.48-6.44,1.25-6.04,6.28.47,5.92.88,11.85,1.31,17.78.05.55-.06,1.2.2,1.62,2.69,4.45,5.44,8.85,7.63,12.4,4.65-1.49,8.86-3.48,13.26-4.13,7.38-1.09,14.62-2,20.13-7.88-.9,4.72-3.4,8.19-7.76,9.75-3.23,1.15-6.74,1.56-10.13,2.26-3.17.65-6.47.9-9.5,1.96-5.06,1.77-5.25,2.9-2.64,7.24,3.93-1,7.62-2.34,11.41-2.8,6.58-.8,13.39-.5,18.57-6.42-.12,2.21-.45,4.19-.97,5.95-1.58,5.33-4.97,8.6-9.91,9.72h-.01c-1.98.46-4.21.57-6.67.33-3.51-.34-7.04-.53-10.72-.8.3,5.89.65,11.34.89,16.65.12,2.38.21,4.72.27,7.07.03,1.32.07,2.64.1,3.96.23,8.43.3,16.85-2.28,25.07-.22.69-.29,1.65.02,2.26,5.35,10.5,11.41,20.41,22.42,26.05,2.27,1.16,4.54,2.01,6.85,2.5,3.84.84,7.78.66,11.94-.8,1.5-.53,2.95-1.12,4.35-1.78h.01c5.78-2.7,10.71-6.53,14.56-11.65,2.37-3.16,4.7-6.36,6.99-9.59,0-.01.01-.01.01-.02,4.2-5.91,8.25-11.93,12.15-18.04,2.77-4.34,4.93-8.93,6.46-13.73,1.69-5.26,2.63-10.77,2.8-16.47.15-5.37-.2-10.76-.31-16.14-.26-12.5,1.19-24.81,4.07-36.98,1.03-4.34-.28-6.23-4.75-6.36Zm-39.7,21.62c1.43,1.9,3.06,3.41,4.82,4.65,3.84,2.69,8.35,4.08,13.05,5.32,4.11,1.08,8.14,3.02,11.78,5.27,2.87,1.77,4.17,5.07,4.9,9.4-1.26-1.34-1.94-2.01-2.55-2.73-3.19-3.7-7.19-5.97-11.94-7.04-3.17-.71-6.34-1.42-9.44-2.37-3.56-1.08-6.31-2.92-8.14-5.56-1.31-1.89-2.15-4.2-2.48-6.94Zm12.33,29.88c-7-.23-11.52-4.36-12.96-11.39-.4-1.97-.59-3.97-.88-5.96,3.34,4.28,7.84,5.8,12.62,6.84,3.06.67,6.17,1.16,9.16,2.03,6.07,1.78,9.65,6.04,11.33,12.3-5.87-4.56-12.64-3.61-19.27-3.82Zm3.99,44.32c-1.2-10.4-3.88-19.2-11.79-25.95,8.29,3.52,13.32,14.39,11.79,25.95Zm-16.92-23.61c-2.34.47-4.8.64-7.01,1.48-3.18,1.22-6.02.96-9.03-.47-2.08-.99-4.37-1.55-6.63-2.33,1.31-1.93,3.72-2.06,6.48-1.76,3.28.35,6.6.55,9.9.5,2.8-.04,5.03.68,6.29,2.58Zm-28.75-3.59c-7.53,5.99-11.16,13.63-13.24,22.72-1.21-8.73,5.31-20,13.24-22.72Zm1.1,39.36c9.67-2.5,18.89-2.52,27.7,1.27-8.99-.41-18.15-.83-27.7-1.27Zm40.9-4.67c.44,1.38.22,3.83-.67,4.54-.98.78-3.2.44-4.71,0-.46-.13-.9-.29-1.34-.46h-.01c-1.42-.59-2.75-1.39-4.15-2.04-11.21-5.15-22.51-4.99-34.04-.92-2.43.86-6.44,1.64-7.72.4-2.44-2.38-.15-5.78,1.5-8.16,5.34-7.69,12.25-13.35,22.95-15.56,1.58.17,4.51-.02,7.07.86,9.85,3.38,16.83,9.84,20.46,19.44.23.61.45,1.25.66,1.89Z"/>
    <path class="cls-6" d="m329.46,658.03c-.26,3.18-1.12,6.38-2.66,9.45-5.53,11.07-14.64,16.38-25.66,18.31-2.2.38-4.48.63-6.82.77-1.8.1-3.62,0-5.45-.13-1.19-.09-2.39-.18-3.6-.24.14-.71.1-1.11.28-1.35,3.94-5.38,2.35-9.7-2.36-13.66-1.73-1.44-3.02-3.41-4.56-5.2,4.76.67,9.12,1.64,13.52,1.82,9.85.42,18.68-5.77,20.92-14.19,1.42-5.33.02-9.76-4.33-13.14-6.25-4.86-13.69-5.78-21.24-6.32-1.09-.07-2.18-.13-3.76-.22,8.46-3.38,21.65-3.77,29.61-1.06,7.28,2.47,12.52,8.17,14.84,15,1.1,3.21,1.55,6.67,1.27,10.16Z"/>
    <path class="cls-3" d="m285.56,638.8c-4.79.01-9.62.46-14.35-.06-17.16-1.87-27.54-16.32-23.85-33.39.92-4.27,2.89-8.48,5.14-12.27,4.11-6.91,15.47-16.58,22.65-19.89,3.32,5.59,6.55,11.03,9.4,15.82-6.58,5.37-13.23,9.85-18.72,15.47-10.91,11.18-7.78,24.96,6.75,30.93,4.04,1.66,8.59,2.1,12.98,3.39Z"/>
    <path class="cls-8" d="m516,574.18c-1.01,14.95-8.64,25.69-21.46,32.92,7.46-7.57,13.8-15.7,11.5-26.69-.14-.71-.33-1.44-.55-2.18-.86-2.86-2.2-5.1-3.9-6.89-4.49-4.77-11.49-6.35-18.63-7.98.32-6.62.64-13.35.97-20.34,7.59,1.28,14.15,3.34,20.18,6.95,4.37,2.61,7.43,5.88,9.36,9.7,1.65,3.26,2.48,6.91,2.6,10.89.04,1.17.01,2.38-.07,3.62Z"/>
    <path class="cls-8" d="m502.03,606.63c-4.02,3.77-8.11,6.98-11.44,10.84-10.12,11.7-10.51,23.84-1.61,36.46.25.35.42.76.86,1.58-3.49.23-6.65.44-10.09.67-.53,3.89-1.04,7.72-1.61,11.91-.84-.68-1.53-1.06-1.98-1.63-6.38-8.06-9.84-17.23-8.29-27.46.63-4.19,2.73-8.7,5.49-11.91,7.75-9.01,17.77-15.17,28.67-20.46Z"/>
  </g>
</svg>